<svg viewBox="0 0 136 44" xmlns="http://www.w3.org/2000/svg"><g fill="#8b96a8"><path d="m19.51 15.1v-13.217c-.004-.476.17-.936.487-1.287.318-.35.755-.565 1.222-.6.479.007.935.204 1.271.55.336.346.524.813.524 1.299 0 6.571 0 13.14 0 19.701.005.079.005.158 0 .237-.172-.137-.336-.283-.492-.437-1.073-1.116-2.36-1.994-3.783-2.581-1.422-.587-2.949-.869-4.483-.829-2.617.099-5.116 1.138-7.05 2.931-1.935 1.793-3.181 4.225-3.516 6.863-.229 1.677-.075 3.386.449 4.993.525 1.607 1.406 3.071 2.577 4.277 1.774 1.904 4.18 3.075 6.753 3.286 2.826.345 5.673-.444 7.934-2.199 1.139-.859 2.091-1.948 2.794-3.2.703-1.252 1.142-2.638 1.29-4.071.092-.88.129-1.764.111-2.648 0-8.695 0-17.39 0-26.09-.027-.248 0-.498.077-.734.077-.236.203-.453.37-.636.167-.182.37-.326.597-.422.226-.096.47-.141.715-.132.418.008.82.167 1.134.448.313.282.518.668.576 1.088.006.1.006.2 0 .3 0 9.232 0 18.452 0 27.672-.03 3.578-1.403 7.01-3.838 9.595-2.153 2.415-5.067 3.992-8.242 4.46-2.01.368-4.076.291-6.05-.226-1.979-.517-3.824-1.463-5.41-2.772-1.523-1.179-2.79-2.663-3.724-4.361-.933-1.698-1.512-3.573-1.701-5.508-.245-2.052-.051-4.133.569-6.102.62-1.969 1.651-3.778 3.02-5.305 2.289-2.676 5.434-4.445 8.881-4.997 2.085-.295 4.208-.129 6.224.487l.713.162"/><path d="m59.659 29.06c.04 2.163-.392 4.308-1.264 6.282-.872 1.974-2.163 3.728-3.78 5.136-2.465 2.184-5.603 3.429-8.873 3.52-3.27.091-6.47-.977-9.05-3.02-2.589-2.057-4.434-4.926-5.249-8.16-.815-3.234-.552-6.651.746-9.717.934-2.408 2.5-4.511 4.528-6.079 2.028-1.568 4.44-2.542 6.974-2.816 1.977-.274 3.99-.1 5.893.509 1.903.609 3.65 1.638 5.116 3.01 2.798 2.481 4.558 5.953 4.92 9.707.043.54.055 1.082.037 1.624m-13.986 11.306c.645-.044 1.286-.132 1.919-.262 2.255-.508 4.294-1.731 5.821-3.491 1.528-1.76 2.465-3.967 2.679-6.303.26-1.943.009-3.921-.728-5.734-.737-1.812-1.933-3.395-3.467-4.585-2.179-1.752-4.951-2.562-7.714-2.253-2.763.309-5.295 1.711-7.05 3.902-1.859 2.317-2.768 5.272-2.539 8.252.229 2.98 1.579 5.756 3.769 7.752 2.02 1.801 4.622 2.772 7.307 2.724"/><path d="m6.151 29.23c.016-2.281.908-4.465 2.487-6.087 1.579-1.622 3.719-2.553 5.964-2.596 2.112.23 4.066 1.246 5.486 2.851 1.42 1.605 2.205 3.687 2.205 5.844 0 2.158-.785 4.239-2.205 5.844-1.42 1.605-3.374 2.62-5.486 2.851-2.257-.02-4.413-.947-5.998-2.58-1.584-1.632-2.466-3.836-2.453-6.128m13.396 0c0-.988-.288-1.954-.829-2.776-.541-.822-1.309-1.462-2.208-1.841-.899-.378-1.888-.477-2.843-.284-.955.193-1.831.669-2.519 1.368-.688.699-1.157 1.589-1.347 2.559-.19.969-.092 1.974.28 2.887.372.913 1 1.693 1.812 2.243.809.549 1.76.842 2.734.842.646-.008 1.284-.145 1.878-.404.594-.259 1.132-.634 1.583-1.104.451-.47.807-1.025 1.047-1.635.24-.609.359-1.261.351-1.917l.061.062"/><path d="m106.24 25.935c.148-.113.431-.312.689-.537.678-.629 1.57-.966 2.488-.941.918.026 1.79.412 2.433 1.078.292.396.555.814.787 1.249l.935-.937c.535-.541 1.188-.945 1.906-1.18.719-.234 1.482-.293 2.227-.17.422.059.829.204 1.195.426.366.222.684.517.936.867.251.35.431.747.527 1.169.097.422.109.859.036 1.286-.517 2.411-1.157 4.785-1.772 7.183-.094.285-.249.545-.455.762-.186.206-.435.343-.707.389-.273.045-.552-.003-.793-.139-.219-.127-.384-.33-.466-.571-.081-.241-.073-.505.023-.741.406-1.624.861-3.248 1.23-4.885.141-.643.203-1.302.184-1.961-.0001-.351-.126-.689-.352-.955-.225-.266-.536-.441-.878-.494-.662-.166-1.361-.087-1.971.222-.611.309-1.094.828-1.362 1.465-.453 1.187-.835 2.401-1.144 3.635-.296 1.037-.505 2.111-.849 3.136-.148.465-.437.872-.824 1.162-.395.162-.836.162-1.23 0-.192-.095-.341-.259-.418-.461-.078-.201-.078-.425-.0001-.626.222-.962.468-1.911.702-2.861.233-.95.553-2.099.75-3.161.148-.38.171-.799.064-1.193-.106-.394-.336-.743-.655-.993-.396-.258-.857-.396-1.328-.396-.471 0-.932.137-1.329.396-.393.216-.741.51-1.022.863-.281.354-.489.761-.614 1.198-.541 1.886-1.021 3.748-1.549 5.684-.108.384-.252.757-.431 1.112-.14.257-.365.455-.635.56-.27.105-.568.11-.841.015-.256-.094-.467-.283-.59-.529-.123-.246-.15-.53-.074-.795.307-1.249.652-2.611.996-3.91.455-1.774.91-3.573 1.415-5.347.11-.42.326-.803.627-1.112.176-.184.409-.301.66-.331.251-.03.505.03.718.169.309.361.566.764.762 1.199"/><path d="m47.876 1.474c5.064.062 9.967 1.819 13.949 4.997 2.453 1.952 4.445 4.436 5.831 7.271.159.359.179.765.056 1.138-.123.373-.38.685-.72.873-.184.098-.386.155-.594.17-.207.014-.415-.015-.611-.087-.195-.072-.374-.184-.525-.329-.151-.145-.27-.321-.35-.515-1.298-2.535-3.132-4.745-5.372-6.474-2.24-1.728-4.829-2.931-7.581-3.521-3.137-.737-6.413-.586-9.472.437-.198.081-.41.118-.624.108-.213-.001-.422-.067-.611-.167-.189-.1-.355-.24-.486-.411-.131-.171-.224-.369-.272-.58-.06-.192-.08-.394-.06-.594.02-.2.081-.394.178-.57.097-.176.228-.329.385-.451.157-.122.338-.21.53-.259 2.038-.725 4.188-1.076 6.347-1.037"/><path d="m79.957 36.804c-.839.049-1.677-.108-2.444-.457-.767-.349-1.44-.881-1.962-1.549-.522-.669-.878-1.456-1.038-2.293-.16-.838-.119-1.703.119-2.521.374-1.687 1.344-3.177 2.727-4.185 1.383-1.01 3.083-1.466 4.776-1.287 1.216.149 2.34.734 3.168 1.65.828.916 1.306 2.104 1.347 3.347.047 1.864-.627 3.672-1.879 5.04-1.251 1.364-2.979 2.175-4.813 2.26m4.244-7.109c.028-.52-.087-1.037-.333-1.494-.246-.457-.612-.835-1.057-1.092-.542-.326-1.164-.488-1.794-.468-.629.02-1.24.221-1.761.58-.72.452-1.305 1.094-1.693 1.857-.388.764-.564 1.62-.509 2.478-.02.444.06.886.234 1.294.174.408.436.77.768 1.059.332.289.724.497 1.148.609.423.112.866.124 1.294.037 1.076-.241 2.034-.861 2.703-1.751.669-.89 1.01-1.991.951-3.109h.049"/><path d="m47.874 7.858c3.795.184 7.424 1.638 10.321 4.135 1.575 1.317 2.837 2.978 3.69 4.86.185.325.24.71.153 1.076-.087.365-.309.682-.62.886-.165.102-.35.168-.541.195-.192.026-.387.012-.573-.042-.186-.054-.359-.146-.508-.272-.149-.125-.271-.28-.358-.456-.64-.962-1.23-1.936-1.968-2.836-1.314-1.597-3.01-2.827-4.92-3.573-2.628-1.057-5.506-1.292-8.266-.675-.348.081-.71.081-1.058 0-.254-.069-.48-.22-.643-.429-.164-.209-.257-.466-.267-.733-.041-.274.001-.555.143-.797.134-.242.343-.432.595-.54 1.529-.628 3.176-.901 4.822-.8"/><path d="m127.93 36.791c-1.549-.039-3.047-.572-4.281-1.524-.121-.079-.225-.183-.306-.304-.08-.121-.135-.258-.162-.402-.026-.144-.024-.292.008-.435.032-.143.092-.277.177-.396.332-.512.812-.6 1.439-.225.382.225.751.512 1.144.737.9.475 1.925.65 2.928.5.297-.023.581-.134.815-.321.235-.187.409-.441.501-.728.148-.687 0-1.087-.763-1.499-.762-.412-1.574-.737-2.349-1.149-2-1.074-2.46-2.748-1.23-4.685.42-.603.994-1.079 1.66-1.374.986-.402 2.056-.547 3.111-.42 1.056.127 2.063.52 2.929 1.145.122.08.227.185.307.308.081.123.135.261.161.407.025.145.021.294-.013.438-.034.144-.097.279-.184.396-.073.12-.171.224-.287.302-.116.079-.248.131-.385.154-.138.023-.279.015-.413-.023-.135-.038-.26-.104-.367-.195-.76-.579-1.671-.918-2.62-.974-.415-.013-.829.038-1.23.15-.25.065-.475.209-.64.411-.166.202-.265.452-.282.714-.039.258.001.521.137.748.127.227.326.403.564.501.726.375 1.488.662 2.177 1.074.613.316 1.167.739 1.636 1.249.442.694.614 1.53.482 2.345-.132.815-.558 1.552-1.195 2.065-1 .743-2.232 1.101-3.469 1.012"/><path d="m69.6 24.711c.603 0 1.23 0 1.808 0 .2-.009.397.04.57.141.173.101.314.251.405.431.092.18.131.383.113.585-.018.202-.093.394-.215.555-.213.248-.513.401-.836.425-.63.063-1.264.063-1.894 0-.504 0-.677.175-.8.637-.631 2.499-1.279 4.997-1.944 7.496-.099.385-.257.751-.468 1.087-.154.258-.394.45-.677.542-.282.092-.588.077-.861-.042-.504-.212-.713-.65-.553-1.362.234-1.037.529-2.061.8-3.086.394-1.524.8-3.061 1.23-4.585 0-.175 0-.35.098-.562h-.381c-.259-.037-.495-.169-.663-.373-.168-.203-.256-.462-.248-.727 0-.525.431-1.087.959-1.024.923.088 1.058-.425 1.23-1.149.104-.607.333-1.185.671-1.696.338-.511.779-.945 1.292-1.272.514-.327 1.09-.542 1.69-.629.6-.087 1.212-.045 1.796.124.763.187 1.095.65.959 1.324-.135.675-.59.95-1.39.775-1.661-.462-2.694.687-2.694 2.386"/><path d="m94.84 26.96c.367-.496.779-.956 1.23-1.374.572-.414 1.197-.746 1.858-.987.131-.05.271-.072.412-.064.14.008.277.045.402.11.125.065.235.155.324.265.089.11.154.238.191.376.1.276.1.58.0001.856-.099.276-.291.509-.542.655-.182.122-.381.214-.59.275-1.206.271-2.305.904-3.152 1.818-.847.914-1.403 2.065-1.597 3.304-.271 1.024-.517 2.061-.836 3.073-.143.412-.379.784-.689 1.087-.181.176-.417.282-.667.298-.25.016-.498-.059-.699-.211-.192-.108-.34-.281-.418-.489-.079-.208-.083-.437-.012-.648.517-2.024 1.037-4.04 1.562-6.05.307-1.162.603-2.336.947-3.486.246-.837.689-1.249 1.365-1.187.155-.004.31.027.452.09.142.064.268.159.37.279.101.12.175.261.216.413.041.152.048.312.02.467l-.148 1.124"/><path d="m53.644 29.07c-.063 1.654-.604 3.252-1.557 4.595-.952 1.343-2.273 2.371-3.797 2.956-1.524.585-3.185.701-4.773.333-1.589-.368-3.036-1.203-4.16-2.401-1.124-1.198-1.876-2.706-2.161-4.336-.285-1.63-.091-3.308.558-4.826.649-1.518 1.724-2.808 3.091-3.709 1.367-.901 2.965-1.373 4.594-1.357 2.219.088 4.317 1.05 5.849 2.683 1.532 1.633 2.377 3.807 2.356 6.06m-8.266-5.11c-.639.003-1.271.136-1.859.389-.588.254-1.12.624-1.566 1.09-.445.465-.795 1.016-1.029 1.62-.233.604-.346 1.249-.332 1.898-.053 1.321.411 2.61 1.292 3.585.881.974 2.106 1.554 3.407 1.612 1.306-.052 2.541-.618 3.444-1.579.902-.961 1.401-2.24 1.391-3.568.014-1.304-.475-2.562-1.363-3.505-.887-.943-2.102-1.496-3.386-1.542"/><path d="m134.39 24.299c.897 0 1.624-.738 1.624-1.649 0-.911-.727-1.649-1.624-1.649-.896 0-1.623.738-1.623 1.649 0 .911.727 1.649 1.623 1.649"/><path d="m134.69 23.09l-.311-.437c-.035.004-.071.006-.108.006h-.365v.431h-.144v-1.358h.509c.173 0 .309.041.407.124.098.083.147.197.147.341 0 .106-.027.196-.081.27-.053.072-.129.125-.229.157l.332.466h-.157m-.423-.553c.134 0 .237-.03.308-.089.071-.059.107-.143.107-.25 0-.11-.036-.194-.107-.252-.071-.059-.174-.089-.308-.089h-.361v.681h.361"/></g></svg>