<svg viewBox="0 0 80 52" xmlns="http://www.w3.org/2000/svg"><g fill="#8b96a8"><path d="m36.924 33.36l.034-.531.034-.531.045-.52.034-.52.045-.52.045-.51.045-.499.034-.51.045-.499.056-.488.045-.478.056-.478.045-.478.045-.467.056-.467.056-.456.056-.457.045-.446.056-.446.067-.435.056-.435.056-.435.067-.435.056-.414.067-.414.067-.414.067-.393.067-.403.067-.403.056-.382.067-.393.078-.372.067-.382.067-.361.078-.372.067-.35.078-.35.078-.361.067-.34.078-.34.078-.329.067-.329.078-.319.078-.329.09-.308.078-.308.078-.308.09-.287.078-.297.09-.287.078-.287.09-.276.09-.276.09-.265.078-.255.09-.255.09-.255.101-.244.078-.244.101-.223.09-.234.09-.234.101-.212.09-.212.09-.212.101-.202.09-.202.101-.191.101-.191.09-.191.101-.17.101-.17.101-.17.09-.159.112-.159.101-.159.09-.149.101-.127.112-.149.101-.117.101-.138.101-.117.101-.117.112-.106.101-.106.112-.096.101-.096.101-.085.112-.085.112-.074.101-.074.112-.064.101-.064.112-.053.101-.053.112-.042.101-.042.112-.042.123-.021.101-.032.112-.021h.112l.101-.011.112-.011.101.011.112.011.09.011.101.032.101.021.112.042.101.053.101.042.101.064.101.064.112.064.112.085.101.074.101.096.112.096.101.106.112.106.112.117.101.127.112.127.101.138.112.127.101.159.112.149.112.159.112.159.101.17.112.18.101.18.112.191.101.18.112.212.112.202.112.202.112.212.101.223.112.234.101.234.112.223.101.244.123.244.101.265.101.244.112.265.101.265.101.276.112.276.112.287.101.287.101.297.112.287.101.308.101.297.112.308.101.329.101.319.09.318.112.329.101.34.101.329.09.34.112.35.101.35.09.35.101.361.101.361.09.361.101.371.09.382.09.382.101.382.09.382.09.382.101.393.078.403.101.403.078.393.09.414.09.404.09.425.078.414.09.414.078.435.078.425.09.435.067.435.09.435.078.435.067.435.078.457.079.435.067.456.078.456.067.457.078.467.067.457.056.467.067.467.067.478.067.467.067.478.045.404h7.542l-.056-.255-.078-.435-.09-.435-.078-.435-.101-.435-.09-.425-.101-.425-.09-.425-.09-.425-.112-.425-.09-.435-.101-.414-.101-.414-.112-.435-.101-.414-.101-.403-.112-.414-.112-.414-.101-.414-.112-.403-.112-.414-.123-.403-.112-.414-.112-.393-.123-.403-.123-.403-.123-.403-.123-.382-.123-.403-.123-.393-.123-.393-.123-.382-.123-.382-.134-.393-.135-.372-.123-.382-.134-.372-.134-.372-.135-.372-.135-.372-.134-.361-.134-.361-.146-.372-.134-.35-.134-.361-.146-.35-.146-.35-.146-.34-.135-.35-.146-.34-.146-.34-.146-.329-.146-.34-.157-.319-.146-.329-.146-.318-.157-.318-.146-.319-.157-.308-.146-.308-.146-.308-.157-.308-.157-.287-.146-.297-.168-.297-.146-.276-.157-.287-.157-.276-.168-.287-.146-.265-.157-.265-.168-.265-.157-.255-.157-.265-.157-.244-.168-.255-.168-.234-.157-.244-.157-.234-.157-.234-.168-.223-.168-.223-.168-.223-.157-.212-.157-.202-.168-.212-.157-.191-.168-.191-.179-.202-.157-.18-.168-.18-.157-.17-.168-.18-.168-.159-.168-.159-.168-.159-.168-.149-.168-.149-.157-.138-.168-.138-.168-.127-.157-.127-.168-.117-.168-.117-.168-.106-.168-.106-.168-.096-.168-.085-.157-.096-.168-.074-.168-.074-.157-.074-.179-.064-.157-.053-.168-.053-.168-.042-.157-.042-.168-.032-.157-.032-.168-.011-.168-.021-.157-.011h-.168-.269l-.269.021-.269.032-.258.042-.258.053-.269.074-.247.074-.247.106-.258.096-.235.117-.235.117-.246.138-.235.149-.235.149-.224.17-.224.18-.224.191-.224.18-.224.212-.213.212-.202.223-.224.223-.202.244-.202.244-.202.255-.191.255-.179.265-.202.276-.191.287-.191.287-.168.297-.179.297-.179.297-.179.329-.168.308-.168.329-.168.318-.168.34-.157.34-.157.329-.157.35-.157.35-.146.35-.146.361-.146.35-.146.372-.135.361-.135.372-.134.361-.123.372-.134.382-.123.371-.134.382-.112.372-.123.382-.112.371-.112.382-.112.382-.101.382-.101.382-.101.372-.112.382-.09.382-.09.372-.101.382-.078.372-.09.372-.078.372-.09.372-.078.361-.078.361-.067.361-.079.361-.056.35-.067.35-.067.35-.067.34-.056.329-.056.34-.056.329-.056.319-.045.329-.056.308-.045.308-.034-.308-.045-.308-.056-.329-.045-.319-.056-.329-.056-.34-.067-.329-.056-.34-.067-.35-.067-.35-.078-.35-.067-.361-.067-.361-.078-.361-.09-.361-.067-.372-.09-.372-.09-.372-.09-.372-.09-.382-.101-.372-.09-.382-.101-.382-.101-.382-.101-.372-.112-.382-.112-.382-.112-.382-.112-.371-.123-.382-.112-.372-.123-.382-.123-.371-.134-.382-.123-.372-.146-.361-.123-.372-.146-.361-.134-.372-.146-.35-.146-.361-.157-.35-.146-.35-.157-.35-.168-.329-.157-.34-.157-.34-.168-.318-.168-.329-.168-.308-.179-.329-.179-.297-.179-.297-.179-.297-.191-.287-.179-.287-.202-.276-.191-.265-.191-.255-.213-.255-.191-.244-.213-.244-.202-.223-.213-.223-.224-.212-.213-.202-.224-.191-.213-.191-.224-.18-.235-.17-.235-.149-.235-.149-.235-.138-.247-.117-.247-.117-.235-.096-.258-.106-.258-.074-.247-.074-.269-.053-.258-.042-.269-.032-.269-.021h-.269-.157l-.168.011-.168.021-.157.011-.168.032-.157.032-.168.032-.168.053-.168.053-.168.053-.157.064-.168.074-.168.074-.157.074-.168.096-.168.085-.168.096-.168.106-.168.106-.168.117-.157.117-.168.127-.168.127-.168.138-.168.138-.168.149-.168.149-.157.149-.168.17-.168.159-.157.17-.168.18-.168.18-.168.18-.168.191-.157.191-.168.202-.157.212-.168.202-.168.212-.168.212-.157.223-.157.234-.168.234-.157.223-.168.244-.157.244-.157.244-.157.255-.168.255-.157.265-.157.255-.157.265-.157.276-.168.276-.157.276-.146.287-.168.287-.146.287-.157.297-.157.297-.157.308-.146.297-.157.308-.146.319-.157.308-.146.319-.146.329-.157.329-.134.319-.157.34-.146.329-.146.329-.134.35-.146.34-.146.34-.146.35-.134.361-.146.35-.134.361-.134.361-.146.361-.134.372-.134.361-.134.372-.123.372-.134.372-.134.382-.123.382-.134.382-.134.382-.123.382-.123.393-.123.393-.123.403-.123.393-.123.393-.112.403-.123.404-.112.393-.123.414-.112.403-.112.414-.112.404-.112.414-.101.414-.112.414-.112.403-.101.425-.101.414-.101.425-.112.425-.09.425-.101.425-.09.425-.101.425-.09.425-.09.435-.101.435-.078.425-.09.435-.078.435-.09.425-.09.435-.078.435-.078.435-.078.435-.067.446-.078.435-.078.435-.067.446-.067.435-.067.446-.067.435-.056.446-.067.435-.056.446-.056.435-.056.446-.056.435-.045.446-.056.435-.045.446-.045.446-.056.435-.034.446-.034.435-.045.446-.034.446-.034.435-.034.435-.022.446-.034.435-.022.435-.034.446-.022.425-.011.446-.022.435-.011.435-.011.435-.011.425-.011.435v.425l-.011.435v.425h.067.191.291.403.459.538.583.616.65.65.65.616.583.527.482.392.291.191.067v-.531-.541l.011-.531.011-.541v-.531l.011-.531.011-.52.022-.541.011-.52.011-.531.022-.531.034-.52.011-.52.034-.531.022-.51.034-.531.022-.509.045-.52.022-.51.045-.52.034-.52.034-.499.045-.51.045-.51.045-.51.045-.488.045-.51.045-.499.056-.499.045-.488.056-.499.056-.488.056-.488.056-.488.056-.478.056-.478.067-.488.067-.478.056-.467.067-.478.056-.467.067-.467.078-.457.067-.467.078-.457.056-.456.079-.456.078-.435.078-.446.067-.446.09-.435.067-.435.09-.435.079-.425.078-.435.09-.425.079-.425.09-.414.079-.414.09-.414.079-.414.101-.393.079-.403.101-.403.09-.393.09-.382.09-.382.09-.382.101-.382.09-.382.09-.371.112-.361.09-.361.09-.361.112-.35.09-.35.101-.35.101-.34.101-.329.101-.34.101-.329.101-.318.112-.319.101-.329.101-.308.101-.297.101-.308.112-.287.101-.297.101-.287.101-.287.112-.276.112-.276.101-.265.112-.255.101-.255.112-.265.101-.244.112-.244.112-.223.101-.234.112-.234.101-.223.112-.212.112-.202.101-.202.112-.212.112-.18.112-.191.101-.18.112-.18.101-.17.112-.159.101-.159.112-.149.112-.159.112-.127.101-.149.112-.117.101-.127.101-.117.112-.106.112-.106.101-.096.112-.096.101-.074.101-.085.101-.064.112-.064.101-.064.101-.042.101-.053.112-.042.101-.021.101-.032.101-.011.101-.011.101-.011.112.011.112.011h.112l.101.021.112.032.112.021.112.042.101.042.123.042.101.053.112.053.101.064.112.064.101.074.112.074.101.085.112.085.112.096.101.096.101.106.101.106.112.117.101.127.101.127.101.117.101.149.112.127.101.149.101.159.101.159.101.159.09.17.101.17.101.17.101.191.09.191.101.191.101.202.09.202.09.212.101.212.09.212.101.234.09.234.078.223.101.244.09.244.09.255.09.255.09.255.078.265.101.276.078.276.09.287.078.287.09.297.078.287.078.308.09.308.078.308.078.329.078.319.078.329.078.329.067.34.078.35.078.35.079.35.067.35.078.372.067.361.067.382.067.372.067.393.067.382.079.403.067.403.056.393.056.414.067.414.056.414.067.435.056.435.056.435.067.435.056.446.045.446.056.457.056.456.056.467.056.467.045.478.045.478.056.478.045.488.034.499.056.51.045.499.034.51.045.52.045.52.034.52.045.531.034.531v.074h9.167l.011-.074"/><path d="m56.13 43.02l.045.509.022.52.034.52.023.531.022.52.022.52.011.531.022.52.022.531.011.541.011.52.011.531.011.531.011.541v.531l.011.541v.531h.067.179.303.381.471.538.594.616.65.639.639.639.572.538.471.392.291.191.079l-.011-.425v-.425l-.011-.435v-.435l-.022-.425-.011-.435v-.435l-.023-.435-.022-.446-.022-.425-.022-.446-.034-.425-.022-.446-.022-.435-.034-.435-.034-.446-.045-.435-.034-.446-.034-.435-.045-.446-.045-.446-.034-.297h-8.03l.022.488"/><path d="m28.14 42.603l.022.626.011.616v.637l.011.626.011.637.011.648v.648l.011.658v.658.658h.067.179.303.381.471.538.594.616.639.65.639.628.583.527.471.392.291.191.067l.011-.658v-.658-.658l.011-.648v-.648l.011-.637v-.626l.011-.637.022-.616.011-.626v-.074h-8.382v.074"/><path d="m61.08 34.17h2.387v7.442h-2.387v-7.442"/><path d="m72.27 34.17h1.625l-.56 2.02h-1.177l.112-2.02"/><path d="m76.69 35.27l.471.011.459.042.437.074.403.096.37.159.314.18.269.244.191.287.123.361.045.403h-.347-.784-.773-.359l-.101-.414-.28-.255-.46-.064-.336.042-.28.181-.123.361.079.276.202.191.314.127.392.085.448.064.482.074.482.106.46.17.403.202.336.265.246.319.168.361.056.425-.034.361-.078.329-.146.297-.202.265-.246.233-.303.191-.359.17-.403.127-.471.095-.504.053-.56.021-.583-.021-.515-.053-.448-.085-.381-.127-.336-.17-.269-.191-.213-.244-.168-.265-.123-.287-.056-.34-.034-.361h.37.784.796.347l.112.446.291.287.437.095.471-.064.28-.202.09-.329-.09-.297-.247-.212-.37-.17-.426-.106-.482-.096-.482-.085-.426-.106-.37-.149-.336-.223-.258-.319-.179-.393-.067-.51.022-.255.056-.255.123-.265.168-.244.224-.255.303-.212.37-.18.448-.149.538-.096.627-.032"/><path d="m27.758 39.37l-.123.382-.168.361-.213.34-.247.297-.28.265-.325.234-.336.191-.37.159-.403.106-.415.074-.426.021-.415-.021-.392-.064-.37-.106-.359-.127-.336-.18-.291-.212-.291-.244-.247-.276-.213-.297-.179-.329-.146-.361-.112-.382-.067-.393-.022-.425.022-.435.056-.393.101-.382.135-.361.168-.329.213-.297.235-.276.269-.244.303-.212.336-.18.359-.127.392-.106.415-.064.437-.021.471.021.426.074.403.117.381.149.347.191.314.233.269.265.235.308.191.329.168.372.112.393h-.347-.762-.773-.347l-.224-.414-.359-.276-.504-.106-.437.074-.325.212-.235.297-.146.371-.079.414-.022.403.022.393.079.414.146.372.235.297.325.212.437.074.504-.106.347-.276.235-.393h.347.762.762.347"/><path d="m11.273 34.17h2.857l1.244 4.395 1.244-4.395h2.858l1.255 7.623h-2.364l-.628-4.459-1.277 4.459h-2.174l-1.277-4.459-.628 4.459h-2.364l1.255-7.623"/><path d="m47.885 37.964v.233.456.584.648.637.563.382.149h-2.353v-6.508h2.353v.127.244.138l.359-.244.381-.18.437-.138.538-.074.65-.032.493.042.448.106.403.17.359.212.291.265.224.287.146.319.045.329v.096.265.404.509.584.605.616.584.499.414.265.095h-2.376v-.159-.403-.573-.658-.658-.573-.403-.149l-.101-.425-.269-.34-.359-.234-.459-.085-.65.181-.392.414-.168.414"/><path d="m68.962 35.756v-1.582h2.398v7.431h-2.398v-.361l-.37.255-.538.202-.84.085h-.291-.291l-.302-.064-.314-.096-.303-.223-.291-.17-.291-.223-.246-.276-.224-.329-.191-.382-.146-.435-.078-.488v-.573-.531l.078-.478.123-.425.168-.372.202-.318.224-.276.269-.233.269-.191.291-.159.303-.117.303-.096h.303.303.291l.796.096.515.18.291.212-.011-.064m-2.477 2.813l.056.563.168.456.269.35.37.223.459.074.459-.064.392-.212.303-.35v-1.953l-.224-.393-.381-.255-.538-.106-.46.074-.37.212-.269.35-.168.456-.056.573h-.011"/><path d="m37.607 38.38v-.403-.372l.09-.361.123-.34.157-.319.191-.287.213-.265.258-.244.28-.212.291-.191.336-.149.359-.127.437-.074.415-.053h.437.426l.403.053.392.085.359.127.325.149.314.191.28.212.246.244.224.265.191.287.146.319.135.34.078.361.056.372v.403.393l-.056.372-.078.372-.123.34-.157.308-.191.287-.224.276-.246.234-.28.212-.314.191-.325.149-.359.127-.392.085-.403.053h-.426-.437l-.415-.064-.381-.085-.359-.127-.336-.149-.291-.191-.28-.212-.258-.234-.213-.276-.123-.287-.157-.308-.123-.34-.09-.372v-.372-.393h-.123m4.964 0v-.403l-.078-.414-.202-.404-.258-.297-.359-.212-.471-.074-.482.074-.359.212-.258.297-.168.372-.078.414v.403.393l.078.414.168.372.258.297.359.212.482.074.471-.074.359-.212.258-.297.168-.372.078-.414v-.393l.034.032"/><path d="m28.598 34.17h4.55l.426.053.404.074.392.106.37.138.336.159.314.181.291.212.269.234.247.255.213.276.179.308.157.329.123.35.112.308.056.382v.403.393l-.056.382-.078.361-.123.35-.157.319-.179.308-.247.287-.247.255-.269.244-.291.202-.314.191-.336.17-.37.127-.392.106-.404.074h-.426-.448-4.101v-7.538m2.712 5.818h1.244.347l.359-.096.325-.181.303-.265.235-.361.157-.478.056-.595-.056-.594-.157-.488-.235-.361-.269-.297-.359-.181-.359-.096h-.347-1.244v4.02-.032"/><path d="m56.916 34.949h.493l.482.053.448.085.403.127.37.17.314.202.28.255.202.276.146.329.067.372v4.777h-2.387v-.648l-.359.265-.37.234-.415.18-.493.106h-.572-.448l-.415-.117-.37-.212-.325-.233-.269-.308-.202-.329-.134-.372v-.393-.265-.265l.101-.265.123-.255.179-.255.235-.223.28-.202.359-.181.426-.138.493-.106.56-.074h.661l.56-.085.28-.212.09-.297-.146-.329-.325-.202-.403-.074h-.404l-.325.191-.123.329h-2.196v-.265-.255l.112-.265.146-.233.202-.223.258-.212.325-.17.392-.159.471-.106.549-.064h.628l.045.043m-.134 3.663l-.516.096-.392.265-.146.457.067.319.258.233.448.085.538-.096.437-.308.258-.52v-.594h-.258-.336l-.359.064"/><path d="m68.36 46.913h1.479l.627.117.426.308.157.435-.112.393-.303.265-.415.127.516.297.235.435.056.573h-.661l-.079-.616-.269-.34-.538-.074h-.538v1.062h-.583v-2.983m.583 1.412h.684l.437-.064.246-.159.079-.287-.067-.223-.202-.149h-.392-.784v.934-.053m.616-2.442h.448l.415.106.381.149.347.202.314.255.269.297.224.329.157.372.101.393v.414.414l-.101.393-.157.361-.235.329-.269.287-.314.265-.347.202-.381.149-.415.096-.516.064h-.426l-.415-.096-.381-.149-.359-.202-.314-.265-.235-.35-.213-.34-.157-.361-.112-.393v-.414-.414l.112-.393.157-.372.213-.329.269-.297.314-.255.359-.202.381-.149.415-.106h.426l.045.011m0 4.82h.437l.403-.117.37-.159.347-.223.291-.276.224-.319.179-.35.112-.393v-.403-.414l-.112-.382-.179-.35-.224-.319-.336-.287-.347-.223-.37-.17-.403-.106h-.437-.426l-.403.106-.37.17-.336.223-.291.276-.235.318-.179.35-.112.382v.414.403l.112.393.179.35.235.318.291.276.336.223.37.159.403.117h.426l.045.011"/></g></svg>