<svg xmlns="http://www.w3.org/2000/svg" viewBox="0 0 168.99 36"><g fill="#8b96a8"><path d="M0,0H17.17V17.12H0Z"/><path d="M18.92,0H36.09V17.12H18.92V0"/><path d="M154.85,6.52a6.8,6.8,0,0,1,5.41-.63V9.06a3.46,3.46,0,0,0-1.34-.39,3.28,3.28,0,0,0-1.39.15,2.17,2.17,0,0,0-.83.7,2.13,2.13,0,0,0-.39,1,22.41,22.41,0,0,0-.12,2.84h5.43V9.86c1.22-.35,2.44-.74,3.66-1.12v4.65h3.65v3h-3.65v5.18a23.06,23.06,0,0,0,0,2.88,1.72,1.72,0,0,0,.22.83,1.67,1.67,0,0,0,.57.64,2.77,2.77,0,0,0,2.92-.38v3a7.4,7.4,0,0,1-3.39.52,4.16,4.16,0,0,1-1.59-.37,4,4,0,0,1-1.33-1,5.46,5.46,0,0,1-1.05-3.54V16.27h-5.44V28.76h-3.66V16.31H150v-3h2.57a15.75,15.75,0,0,1,.26-3.94,5.06,5.06,0,0,1,2.07-2.89"/><path d="M75.32,6.74a2.36,2.36,0,0,1,1.12.1,2.23,2.23,0,0,1,.94.63,2.07,2.07,0,0,1,.51,1.17,2.11,2.11,0,0,1-.25,1.26,2.35,2.35,0,0,1-1.06.89,2.26,2.26,0,0,1-1.38.14A2.05,2.05,0,0,1,74,10.21a2.11,2.11,0,0,1-.48-1.34A2.16,2.16,0,0,1,74,7.46a2.22,2.22,0,0,1,1.34-.7l0,0"/><path d="M46.86,7.2h5.4L57.31,20c.43,1.06.83,2.14,1.28,3.2,2.17-5.33,4.35-10.63,6.5-16h5.19V28.8H66.54V12.15a1.63,1.63,0,0,0-.19.34C64.2,17.93,62,23.35,59.87,28.8H57.21C55,23.36,52.81,17.91,50.6,12.47l-.18-.31V28.88H46.89V7.2h0"/><path d="M85.54,13.31a10.11,10.11,0,0,1,5.51,0,4.45,4.45,0,0,1,1.06.43v3.55A5.92,5.92,0,0,0,87.88,16a4.54,4.54,0,0,0-1.72.53A4.17,4.17,0,0,0,84.8,17.7a5.94,5.94,0,0,0-1,4.29,4.62,4.62,0,0,0,1.55,3.09,4.72,4.72,0,0,0,3.47,1,7.1,7.1,0,0,0,3.33-1.37V28.1a9.11,9.11,0,0,1-5.07,1,7.51,7.51,0,0,1-4.88-2A7.7,7.7,0,0,1,80,22a9.35,9.35,0,0,1,1.46-5.75,7.55,7.55,0,0,1,4.12-2.9h0"/><path d="M126.09,13.06a10.05,10.05,0,0,1,5.15.54V17a6.63,6.63,0,0,0-3.91-1.14,1.9,1.9,0,0,0-1,.25,1.92,1.92,0,0,0-.75.72,1.58,1.58,0,0,0-.07,1,1.61,1.61,0,0,0,.6.85c1.05.71,2.31,1,3.4,1.63a4.87,4.87,0,0,1,2.19,2,4.5,4.5,0,0,1-1,5.2,7,7,0,0,1-2.45,1.33,7.06,7.06,0,0,1-2.78.28,11.37,11.37,0,0,1-3.77-.86V24.75a8.18,8.18,0,0,0,3.37,1.45,4.43,4.43,0,0,0,2.57-.23,1.72,1.72,0,0,0,.44-.41,1.42,1.42,0,0,0,.24-.55,1.51,1.51,0,0,0,0-.6,1.42,1.42,0,0,0-.24-.55,4.39,4.39,0,0,0-1.62-1.06,15.42,15.42,0,0,1-3.21-1.64A3.92,3.92,0,0,1,121.93,19a4.72,4.72,0,0,1-.11-1.87,4.91,4.91,0,0,1,.62-1.78,5.72,5.72,0,0,1,1.6-1.5,5.65,5.65,0,0,1,2.06-.77v0"/><path d="M100.41,13.56a4.17,4.17,0,0,1,3.45-.29v3.65a4,4,0,0,0-2.51-.59,3.11,3.11,0,0,0-1.41.66A3,3,0,0,0,99,18.24a6.89,6.89,0,0,0-.52,3.17v7.4H94.84V13.34H98.5V16a4.75,4.75,0,0,1,1.91-2.44h0"/><path d="m73.77 13.38h3.66v15.47h-3.66v-15.48"/><path d="M119.25,16.93A6.61,6.61,0,0,0,116,13.66a10,10,0,0,0-5.32-.62v0a7.37,7.37,0,0,0-4.88,2.6,8.28,8.28,0,0,0-1.72,4.73,9,9,0,0,0,1.37,5.78,7.07,7.07,0,0,0,4.29,2.79,10.58,10.58,0,0,0,4.34,0,7.13,7.13,0,0,0,4.27-2.62A8.2,8.2,0,0,0,120,21.8,10.15,10.15,0,0,0,119.25,16.93ZM115.67,24a3.64,3.64,0,0,1-.74,1.08,3.42,3.42,0,0,1-1.09.71,4.88,4.88,0,0,1-3,.13,3.65,3.65,0,0,1-1.35-.71,4,4,0,0,1-1-1.2,7.27,7.27,0,0,1-.56-3.88,4.91,4.91,0,0,1,1.44-3.22,3.87,3.87,0,0,1,2.43-1h0a4,4,0,0,1,1.64.19,3.92,3.92,0,0,1,1.44.86,5.05,5.05,0,0,1,1.28,3.22A8.13,8.13,0,0,1,115.67,24Z"/><path d="M149,17.43a6.64,6.64,0,0,0-3.2-3.65,9.65,9.65,0,0,0-5.51-.74h0a7.25,7.25,0,0,0-6.55,6.51,10.15,10.15,0,0,0,.59,5.37,6.85,6.85,0,0,0,3.77,3.65,10,10,0,0,0,5.23.44,7.23,7.23,0,0,0,4.56-2.66,8.42,8.42,0,0,0,1.68-5.27A10.07,10.07,0,0,0,149,17.43Zm-3.37,5.17a4.76,4.76,0,0,1-1,2.27,3.46,3.46,0,0,1-2.16,1.22,4.81,4.81,0,0,1-2.65-.3,3.72,3.72,0,0,1-2-2,7.56,7.56,0,0,1-.44-3.37,5.37,5.37,0,0,1,1.13-3.07,3.79,3.79,0,0,1,2.72-1.3l0,0a4.06,4.06,0,0,1,3,.88,4.27,4.27,0,0,1,1.36,2.43A9.68,9.68,0,0,1,145.62,22.6Z"/><path d="M0,18.88H17.17V36H0V18.88"/><path d="M18.92,18.88H36.09V36H18.92V18.88"/></g></svg>