<svg viewBox="0 0 86 37" xmlns="http://www.w3.org/2000/svg"><g fill="#8b96a8" fill-rule="evenodd"><path d="m36.36 13.14c4.084-10.01-3.553-12.708-8.551-12.708h-16.497c.484.297.842.76 1.01 1.301.164.541.122 1.122-.117 1.635l-9.612 30.456c-.233.592-.582 1.132-1.027 1.59-.445.458-.976.823-1.564 1.077h13.35c-.529-.161-.973-.522-1.236-1.01-.263-.483-.324-1.049-.17-1.576l3.492-11.01c0 0 16.06 2.14 20.926-9.761m-12.919-9.92c1.74 0 6.589.232 3.467 9.308-3.282 9.528-10.525 7.571-10.525 7.571l5.343-16.879h1.715"/><path d="m47.03 36.486h8.983c-3.305-1.198-6.313-3.083-8.822-5.529 1.996-1.869 3.208-4.415 3.393-7.131h-4.676c.269.172.491.407.646.684.155.277.238.589.242.906-.042 1.222-.474 2.4-1.234 3.364-1.71-2.248-2.852-4.869-3.331-7.645 2.301-.936 4.467-2.17 6.441-3.669.684-.509 1.253-1.156 1.667-1.898.415-.742.666-1.563.739-2.408v-.134c-.004-.534-.115-1.063-.326-1.554-.212-.491-.52-.936-.907-1.308-.763-.682-1.681-1.171-2.676-1.425-.995-.254-2.037-.264-3.037-.031-1.517.293-2.93.976-4.096 1.982-2.715 2.52-3.06 6.678-3.06 8.562-.018.338-.018.677 0 1.015l-.432.159c-1.974.722-7.268 2.128-9.168 6.446-.388.986-.585 2.036-.58 3.095-.019 1.295.336 2.568 1.024 3.669 1.333 2.067 3.603 3.376 7.218 3.315 3.936-.061 7.81-2.728 8.514-3.217 1.055 1.041 2.222 1.964 3.48 2.752m0-24.08c-.469 2.911-4.257 5.834-5.182 6.238-.305-2.181.129-4.401 1.234-6.311.913-1.394 2.11-2.01 3.085-1.676.839.269.938.991.864 1.749m-5.281 19.399c-1.404.811-2.955 1.339-4.565 1.553-1.814.171-4.824-.526-4.812-4.122 0-3.07 3.368-5.321 5.195-6.116.839 3.127 2.258 6.072 4.183 8.684"/><path d="m74.34 3.254c5.33-1.223 9.735 2.874 10.13 3.156l1.53-4.807c-2.097-.624-17.434-5.773-28.26 6.483-6.651 7.535-8.279 22.983.16 27.12 9.04 4.428 19.01-.673 19.742-1.028l4.133-13.03c.208-.774.615-1.481 1.182-2.051.567-.571 1.274-.985 2.051-1.202h-14.338c.322.081.624.224.888.423.264.199.485.448.65.734.165.285.27.601.309.927.039.327.011.658-.082.973l-4.109 13.03c-.555.11-12.08 2.96-5.626-17.04 1.382-4.293 5.281-12.17 11.635-13.687"/></g></svg>