<svg viewBox="0 0 142 25" xmlns="http://www.w3.org/2000/svg"><g fill="#8b96a8"><path d="m4.082 24.05h-3.345v-8.643h3.01c.312 2.659 2.109 4.01 4.393 4.842 3.731 1.472 7.83 1.714 11.706.69.597-.174 1.174-.41 1.722-.702.404-.2.735-.524.943-.926.209-.401.285-.859.217-1.307-.021-.413-.182-.807-.457-1.115-.275-.308-.647-.512-1.053-.578-2.246-.414-4.505-.702-6.764-1.066-3.207-.527-6.477-.865-9.622-1.681-1.441-.29-2.727-1.098-3.617-2.274-.889-1.176-1.321-2.638-1.213-4.111.041-.914.308-1.803.776-2.587.468-.784 1.124-1.438 1.907-1.904 2.145-1.35 4.571-2.187 7.089-2.446 4.499-.624 9.08.064 13.204 1.982.874.389.961.314 1.186-1.066h2.958v7.627c-.799 0-1.56 0-2.321 0-.115-.029-.221-.083-.312-.159-.091-.076-.163-.172-.212-.28-.289-.833-.765-1.589-1.39-2.209-.625-.62-1.384-1.087-2.217-1.366-3.855-1.579-8.123-1.822-12.13-.69-.729.166-1.414.486-2.01.941-.267.177-.474.431-.593.729-.119.298-.146.626-.075.939.07.313.234.598.47.815.235.217.531.358.848.402 1.398.351 2.858.502 4.293.715 3.432.489 6.889.853 10.309 1.468 1.393.282 2.724.813 3.931 1.568.919.525 1.685 1.282 2.223 2.197.538.914.829 1.954.844 3.02.015 1.062-.246 2.11-.758 3.039-.512.93-1.256 1.708-2.16 2.259-2.427 1.472-5.171 2.333-8 2.509-4.187.372-8.401-.283-12.281-1.907-1.373-.539-1.373-.539-1.435.916-.012.123-.033.244-.062.364"/><path d="m101.34 23.608c-1.46 0-2.796 0-4.131 0-.336-.067-.644-.233-.886-.477l-16.312-14.551-.699-.564c0 .339 0 .539 0 .728 0 3.387 0 6.786 0 10.173 0 1.756.225 1.944 1.947 1.957h2.496v2.684h-12.78v-2.684h2.496c1.148 0 1.448-.276 1.448-1.418 0-4.516 0-9.03 0-13.547 0-1.254-.474-1.643-1.685-1.719-.412 0-.824 0-1.248 0h-1.248v-2.797h.973c3.01 0 6 0 9.01 0 .29-.012.579.037.85.142.271.106.517.267.722.472 4.518 4.106 9.04 8.191 13.566 12.255l.948.841c0-.339.062-.552.062-.778-.05-2.843-.104-5.695-.162-8.555 0-1.254-.374-1.581-1.61-1.593h-2.746v-2.735h12.955v2.722h-2.646c-1.248 0-1.535.263-1.523 1.518.05 5.528.117 11.06.2 16.583v1.342"/><path d="m49.921 0c4.992 0 8.798.765 12.193 3.086 1.653 1.041 3 2.504 3.912 4.239.909 1.735 1.345 3.681 1.264 5.641-.081 1.959-.677 3.862-1.726 5.515-1.049 1.653-2.515 2.998-4.249 3.898-3.835 2.096-8.214 2.971-12.555 2.509-3.915-.15-7.685-1.528-10.783-3.939-1.28-1.045-2.306-2.371-3-3.875-.693-1.505-1.035-3.148-1-4.806.035-1.658.446-3.285 1.202-4.759.756-1.474 1.837-2.754 3.16-3.744 3.377-2.435 7.425-3.751 11.582-3.763m1.248 21.688c1.607.025 3.19-.391 4.578-1.205 1.388-.814 2.528-1.993 3.297-3.411.852-1.452 1.286-3.114 1.253-4.8-.033-1.686-.532-3.329-1.44-4.746-2.034-3.374-5.329-4.441-9.1-4.265-1.351.027-2.678.358-3.885.971-1.206.612-2.26 1.489-3.083 2.566-.823 1.077-1.395 2.326-1.673 3.655-.278 1.329-.255 2.704.067 4.02.961 4.453 4.543 7.213 9.984 7.213"/><path d="m132.76 20.835v2.709h-15.15v-2.697h2.746c1.135 0 1.335-.251 1.347-1.392.188-1.411.142-2.844-.137-4.24-.664-1.22-1.539-2.311-2.583-3.224-1.76-1.957-3.582-3.976-5.292-6.03-.443-.637-1.05-1.141-1.755-1.459-.705-.318-1.483-.438-2.251-.348-.52.032-1.041.032-1.56 0v-2.709h15.201v2.722c-.574 0-1.123 0-1.685 0-.562 0-.811.401-.424.891 1.709 2.082 3.457 4.139 5.241 6.272 1.485-1.719 2.896-3.387 4.319-5.02.347-.364.673-.75.973-1.154.387-.514.2-.916-.449-.953-.649-.038-1.111 0-1.735 0v-2.76h12.48v2.722c-.873 0-1.76 0-2.633 0-.397-.034-.797.026-1.167.174-.371.148-.702.381-.967.679-2.796 3.199-5.616 6.385-8.399 9.584-.195.253-.308.559-.325.878 0 1.367 0 2.735 0 4.102 0 .866.424 1.254 1.248 1.254h2.958"/></g></svg>