<svg viewBox="0 0 187 30" xmlns="http://www.w3.org/2000/svg"><g fill="#8b96a8"><path d="m23.607 23.811c1.903 0 3.45-3.855 3.523-8.679-1.142.096-2.32.156-3.535.156-1.215 0-2.381 0-3.523-.156.086 4.789 1.633 8.679 3.523 8.679h.012m-.012-12.342c1.129 0 2.234 0 3.278-.132-.528-3.328-1.792-5.686-3.278-5.686-1.485 0-2.75 2.394-3.265 5.686 1.056.084 2.161.132 3.278.132h-.012m1.535 16.999c10.57-.539 18.905-6.608 18.905-14.01-.035-2.534-.968-4.979-2.639-6.919-.123 3.412-5.107 6.309-11.994 7.362v.658c0 6.201-1.817 11.421-4.297 12.929l.025-.024m-1.535-26.337c2.529 0 4.665 3.723 5.463 8.919 4.91-.742 8.323-2.394 8.323-4.453 0-2.682-6.138-4.848-13.786-4.848-7.648 0-13.774 2.191-13.774 4.872 0 1.999 3.425 3.711 8.323 4.453.81-5.184 2.946-8.907 5.463-8.907l-.012-.036m-23.594 12.869c0-8.284 10.57-15 23.607-15 13.04 0 23.619 6.716 23.619 15 0 8.284-10.57 15-23.619 15-13.05 0-23.607-6.716-23.607-15m22.1 13.468c-2.455-1.508-4.297-6.728-4.297-12.929v-.67c-6.887-1.053-11.859-3.95-11.981-7.362-1.676 1.939-2.613 4.384-2.652 6.919 0 7.398 8.335 13.468 18.905 14.01l.025.036"/><path d="m132.24 22.255c3.683 0 6.568-3.244 6.568-7.255 0-4.01-2.934-7.267-6.568-7.267-3.633 0-6.555 3.256-6.555 7.267 0 4.01 2.934 7.255 6.555 7.255m-11.748-7.255c0-2.269.69-4.487 1.983-6.373 1.293-1.886 3.13-3.356 5.28-4.224 2.15-.868 4.515-1.094 6.797-.651 2.281.443 4.377 1.537 6.02 3.142 1.644 1.605 2.763 3.65 3.216 5.875.452 2.226.217 4.532-.675 6.627-.892 2.095-2.401 3.886-4.337 5.144-1.935 1.259-4.21 1.929-6.537 1.927-1.543 0-3.072-.297-4.498-.873-1.426-.576-2.722-1.421-3.813-2.486-1.091-1.065-1.956-2.329-2.546-3.721-.59-1.391-.892-2.882-.891-4.388"/><path d="m157.34 8.308v17.634h-4.96v-17.634h.012-6.923v-3.986h18.77v3.986h-6.899"/><path d="m174.77 17.43h3.119l-3.094-7.853-3.106 7.913h3.118l-.037-.06m-4.493 3.651l-1.902 4.86h-5.782l9.145-21.62h6.138l9.146 21.62h-5.782l-1.903-4.86h-9.07.012"/><path d="m66.03 8.308v17.634h-4.959v-17.634h.024-6.936v-3.986h18.77v3.986h-6.899"/><path d="m85.93 22.255c3.683 0 6.555-3.244 6.555-7.255 0-4.01-2.873-7.267-6.555-7.267-3.683 0-6.568 3.256-6.568 7.267 0 4.01 2.934 7.255 6.568 7.255m-11.76-7.255c0-2.268.69-4.486 1.982-6.372 1.292-1.886 3.129-3.356 5.278-4.224 2.149-.868 4.514-1.095 6.795-.653 2.281.443 4.377 1.535 6.02 3.139 1.645 1.604 2.765 3.647 3.219 5.872.454 2.225.221 4.531-.669 6.626-.89 2.096-2.397 3.887-4.332 5.147-1.934 1.26-4.208 1.933-6.534 1.933-3.113-.001-6.094-1.222-8.292-3.372-2.197-2.15-3.431-5.061-3.431-8.097h-.037"/><path d="m109.1 25.942h2.516v-8.212l8.643-13.408h-5.782l-5.377 9.09-5.365-9.09h-5.782l8.643 13.408v8.212h2.504"/></g></svg>