<svg viewBox="0 0 89 35" xmlns="http://www.w3.org/2000/svg"><g fill="#8b96a8" fill-rule="evenodd"><path d="m50.922.675c-1.785.957-2.428 2.527-2.428 6.882.645-.618 1.404-1.101 2.234-1.423.812-.296 1.576-.709 2.271-1.227 1.493-1.116 1.7-2.527 1.7-4.907-1.289-.046-2.574.176-3.776.65v.025"/><path d="m40.469 1.705c-.911.913-1.554 2.064-1.858 3.325l-4.796 18.598-3.958-15.249c-.374-1.793-1.119-3.486-2.186-4.968-1.384-1.705-4.213-1.803-4.517-1.803-.304 0-3.157.098-4.565 1.828-1.063 1.485-1.807 3.177-2.186 4.968l-3.958 15.249-4.747-18.622c-.279-1.27-.926-2.427-1.858-3.325-1.662-1.296-3.75-1.905-5.84-1.705l9.106 34.939c1.53.126 3.069-.074 4.517-.589 1.955-1.01 2.926-1.803 4.128-6.563 1.069-4.208 4.104-16.623 4.335-17.531.121-.429.304-1.497 1.069-1.497.765 0 .947 1.03 1.069 1.497.279.883 3.242 13.323 4.335 17.555 1.214 4.735 2.149 5.508 4.14 6.563 1.445.508 2.981.7 4.505.564l9.106-34.853c-2.079-.222-4.165.356-5.84 1.619m14.23 4.048c-.501.662-1.134 1.209-1.858 1.607-.838.466-1.639.797-2.501 1.227-.548.19-1.019.558-1.339 1.046-.321.488-.473 1.069-.433 1.653v23.652c1.284.154 2.587-.0001 3.8-.454 1.931-1.01 2.428-1.963 2.428-6.318v-22.413h-.097m22.754 11.826l11.547-17.42c0 0-4.857-.846-7.285 1.386-1.214 1.218-2.312 2.549-3.278 3.975l-4.25 6.232c-.231.307-.461.675-.898.675-.194-.021-.379-.095-.535-.214-.156-.119-.277-.278-.351-.461l-4.286-6.208c-.964-1.431-2.067-2.763-3.29-3.975-2.428-2.233-7.285-1.386-7.285-1.386l11.583 17.371-11.596 17.334c0 0 5.1.675 7.504-1.57 1.153-1.139 2.179-2.402 3.06-3.766l4.237-6.244c.219-.307.449-.662.886-.662.187.025.364.099.513.215.149.116.265.271.337.447l4.225 6.207c.931 1.341 1.97 2.6 3.108 3.766 2.428 2.245 7.431 1.57 7.431 1.57l-11.377-17.273"/></g></svg>